HIERARCHY
ROOT Hips
{
	OFFSET 0.000000 0.000000 0.000000
	CHANNELS 6 Xposition Yposition Zposition Zrotation Yrotation Xrotation 
	JOINT LHipJoint
	{
		OFFSET 0.000000 0.000000 0.000000
		CHANNELS 3 Zrotation Yrotation Xrotation
		JOINT LeftUpLeg
		{
			OFFSET 1.363060 -1.794630 0.839290
			CHANNELS 3 Zrotation Yrotation Xrotation
			JOINT LeftLeg
			{
				OFFSET 2.448110 -6.726130 0.000000
				CHANNELS 3 Zrotation Yrotation Xrotation
				JOINT LeftFoot
				{
					OFFSET 2.562200 -7.039590 0.000000
					CHANNELS 3 Zrotation Yrotation Xrotation
					JOINT LeftToeBase
					{
						OFFSET 0.157640 -0.433110 2.322550
						CHANNELS 3 Zrotation Yrotation Xrotation
						End Site
						{
							OFFSET 0.000000 0.000000 0.000000
						}
					}
				}
			}
		}
	}
	JOINT RHipJoint
	{
		OFFSET 0.000000 0.000000 0.000000
		CHANNELS 3 Zrotation Yrotation Xrotation
		JOINT RightUpLeg
		{
			OFFSET -1.305520 -1.794630 0.839290
			CHANNELS 3 Zrotation Yrotation Xrotation
			JOINT RightLeg
			{
				OFFSET -2.542530 -6.985550 0.000000
				CHANNELS 3 Zrotation Yrotation Xrotation
				JOINT RightFoot
				{
					OFFSET -2.568260 -7.056230 0.000000
					CHANNELS 3 Zrotation Yrotation Xrotation
					JOINT RightToeBase
					{
						OFFSET -0.164730 -0.452590 2.363150
						CHANNELS 3 Zrotation Yrotation Xrotation
						End Site
						{
							OFFSET 0.000000 0.000000 0.000000
						}
					}
				}
			}
		}
	}
	JOINT LowerBack
	{
		OFFSET 0.000000 0.000000 0.000000
		CHANNELS 3 Zrotation Yrotation Xrotation
		JOINT Spine
		{
			OFFSET 0.028270 2.035590 -0.193380
			CHANNELS 3 Zrotation Yrotation Xrotation
			JOINT Spine1
			{
				OFFSET 0.056720 2.048850 -0.042750
				CHANNELS 3 Zrotation Yrotation Xrotation
				JOINT Neck
				{
					OFFSET 0.000000 0.000000 0.000000
					CHANNELS 3 Zrotation Yrotation Xrotation
					JOINT Neck1
					{
						OFFSET -0.054170 1.746240 0.172020
						CHANNELS 3 Zrotation Yrotation Xrotation
						JOINT Head
						{
							OFFSET 0.104070 1.761360 -0.123970
							CHANNELS 3 Zrotation Yrotation Xrotation
							End Site
							{
								OFFSET 0.000000 0.000000 0.000000
							}
						}
					}
				}
				JOINT LeftShoulder
				{
					OFFSET 0.000000 0.000000 0.000000
					CHANNELS 3 Zrotation Yrotation Xrotation
					JOINT LeftArm
					{
						OFFSET 3.362410 1.200890 -0.311210
						CHANNELS 3 Zrotation Yrotation Xrotation
						JOINT LeftForeArm
						{
							OFFSET 4.983000 -0.000000 -0.000000
							CHANNELS 3 Zrotation Yrotation Xrotation
							JOINT LeftHand
							{
								OFFSET 3.483560 -0.000000 -0.000000
								CHANNELS 3 Zrotation Yrotation Xrotation
								JOINT LeftFingerBase
								{
									OFFSET 0.000000 0.000000 0.000000
									CHANNELS 3 Zrotation Yrotation Xrotation
									JOINT LeftHandIndex1
									{
										OFFSET 0.715260 -0.000000 -0.000000
										CHANNELS 3 Zrotation Yrotation Xrotation
										End Site
										{
											OFFSET 0.000000 0.000000 0.000000
										}
									}
								}
								JOINT LThumb
								{
									OFFSET 0.000000 0.000000 0.000000
									CHANNELS 3 Zrotation Yrotation Xrotation
									End Site
									{
										OFFSET 0.000000 0.000000 0.000000
									}
								}
							}
						}
					}
				}
				JOINT RightShoulder
				{
					OFFSET 0.000000 0.000000 0.000000
					CHANNELS 3 Zrotation Yrotation Xrotation
					JOINT RightArm
					{
						OFFSET -3.136600 1.374050 -0.404650
						CHANNELS 3 Zrotation Yrotation Xrotation
						JOINT RightForeArm
						{
							OFFSET -5.241900 -0.000000 -0.000000
							CHANNELS 3 Zrotation Yrotation Xrotation
							JOINT RightHand
							{
								OFFSET -3.444170 -0.000000 -0.000000
								CHANNELS 3 Zrotation Yrotation Xrotation
								JOINT RightFingerBase
								{
									OFFSET 0.000000 0.000000 0.000000
									CHANNELS 3 Zrotation Yrotation Xrotation
									JOINT RightHandIndex1
									{
										OFFSET -0.622530 -0.000000 -0.000000
										CHANNELS 3 Zrotation Yrotation Xrotation
										End Site
										{
											OFFSET 0.000000 0.000000 0.000000
										}
									}
								}
								JOINT RThumb
								{
									OFFSET 0.000000 0.000000 0.000000
									CHANNELS 3 Zrotation Yrotation Xrotation
									End Site
									{
										OFFSET 0.000000 0.000000 0.000000
									}
								}
							}
						}
					}
				}
			}
		}
	}
}
MOTION
Frames: 10
Frame Time: 0.008333
-5.880126 17.961198 -28.172907 176.612245 -46.789489 -161.096405 14.927422 -3.925993 -4.919112 -18.727333 -33.828706 -18.789552 -5.585391 13.414654 23.084081 5.397230 -10.835581 9.921991 2.006300 -8.879200 -25.418200 -14.839780 4.847925 -4.975096 -3.674932 42.087313 -26.539954 5.016361 -16.645451 22.729020 -7.320440 15.192574 14.373446 -0.247900 3.203700 -8.846400 1.399777 1.866968 -6.671950 0.284713 2.304830 -4.714726 -6.394500 0.871060 2.392606 7.228094 15.275103 -15.039523 -0.102945 19.377121 12.905127 -3.688400 9.015600 15.572300 -1.000797 -12.069346 0.199592 -52.430632 -21.196049 55.202258 32.349585 -34.013042 -15.852798 0.302000 -5.565561 -64.244846 33.111309 16.112882 13.796800 -7.125000 0.000000 0.000000 10.322100 52.480400 1.917000 7.206340 12.524457 1.011662 53.698431 18.074726 30.739144 -34.961438 35.434724 -16.617986 0.977645 4.414023 -34.476285 -32.749273 -39.149161 25.512300 7.125000 0.000000 0.000000 0.883000 -77.127800 -0.664100 
-5.822421 17.950357 -28.283009 176.630179 -48.040970 -161.174358 14.919991 -3.929242 -4.823116 -18.142152 -34.414297 -18.815570 -5.561958 13.465747 23.068993 5.521915 -11.248522 9.808224 2.041300 -8.951500 -25.643700 -14.722355 4.698583 -5.020581 -2.096912 40.667387 -25.655331 4.860460 -16.361230 23.080436 -7.247598 15.103269 13.233684 -0.257800 3.266600 -9.022000 1.641819 1.976337 -6.682050 0.257887 2.424827 -4.713238 -6.667361 0.925436 2.250450 7.581588 15.639981 -14.549340 -0.184324 19.820935 12.734033 -3.730100 9.271000 15.411500 -1.005308 -12.073173 0.261701 -52.386947 -21.238517 55.507270 32.270116 -33.949497 -15.780925 0.297663 -5.571386 -64.265289 33.149679 16.098197 13.805600 -7.125000 0.000000 0.000000 10.372300 52.467800 1.923200 7.248107 12.524574 1.052859 53.919054 17.866240 30.583560 -34.793438 35.363716 -16.510018 0.987902 4.412408 -34.333752 -32.705863 -39.132273 25.470600 7.125000 0.000000 0.000000 0.953000 -77.097800 -0.716200 
-5.763248 17.943017 -28.392998 176.674427 -49.284552 -161.260883 14.900411 -3.929488 -4.726785 -17.515657 -34.975694 -18.835037 -5.549726 13.485397 22.984653 5.643649 -11.631491 9.737723 2.075300 -9.021300 -25.861900 -14.594666 4.541452 -5.071508 -0.564173 39.280018 -24.823405 4.712122 -16.078186 23.385382 -7.146175 14.762952 11.996056 -0.299400 3.518500 -9.725800 1.881078 2.091092 -6.703542 0.230723 2.550999 -4.710588 -6.935972 0.982268 2.118397 7.961602 16.001420 -14.053942 -0.275866 20.258837 12.557510 -3.787400 9.526500 15.258100 -1.005884 -12.073216 0.325388 -52.320089 -21.289754 55.801724 32.205150 -33.897622 -15.722256 0.293603 -5.579633 -64.284933 33.215542 16.100583 13.840600 -7.125000 0.000000 0.000000 10.455000 52.482100 1.942500 7.291225 12.525044 1.094795 54.145902 17.668439 30.424668 -34.629108 35.294251 -16.403745 0.998023 4.409613 -34.214710 -32.677737 -39.094628 25.431700 7.125000 0.000000 0.000000 0.958300 -77.050800 -0.719200 
-5.702833 17.939403 -28.502874 176.728053 -50.510495 -161.349340 14.871765 -3.927436 -4.634303 -16.872378 -35.515327 -18.831433 -5.550004 13.467856 22.825936 5.759167 -11.975424 9.721830 2.107800 -9.087000 -26.067900 -14.463461 4.384680 -5.121137 0.888705 37.996808 -24.043577 4.572485 -15.812104 23.646430 -6.997389 14.124928 10.670238 -0.391800 4.019400 -11.131300 2.104573 2.213327 -6.731388 0.202700 2.687945 -4.705410 -7.189735 1.044547 2.002315 8.352235 16.356937 -13.568368 -0.373081 20.692725 12.378569 -3.852800 9.780500 15.115900 -1.002404 -12.068160 0.389799 -52.231077 -21.345916 56.085627 32.168506 -33.868532 -15.688206 0.291067 -5.588346 -64.308695 33.299336 16.113972 13.892600 -7.125000 0.000000 0.000000 10.557400 52.514300 1.970300 7.334743 12.524886 1.137121 54.371929 17.484149 30.248865 -34.462258 35.220707 -16.293142 1.010338 4.403630 -34.100824 -32.658363 -39.013128 25.379700 7.125000 0.000000 0.000000 0.881200 -76.960500 -0.659700 
-5.640837 17.939855 -28.612299 176.796609 -51.723909 -161.430543 14.837629 -3.928877 -4.551924 -16.200228 -36.035745 -18.816081 -5.564151 13.413254 22.588681 5.870846 -12.286491 9.771911 2.138800 -9.149400 -26.263800 -14.340102 4.241087 -5.160989 2.222073 36.913565 -23.333953 4.444191 -15.585798 23.870902 -6.766970 13.113313 9.295171 -0.544700 4.728200 -13.135000 2.311795 2.339176 -6.774661 0.174903 2.829652 -4.698007 -7.420801 1.109451 1.903232 8.753036 16.707303 -13.093751 -0.481516 21.125059 12.193263 -3.928600 10.033100 14.983800 -0.992960 -12.055650 0.456271 -52.091412 -21.382769 56.349172 32.188212 -33.886905 -15.703233 0.292048 -5.595152 -64.368820 33.400983 16.117208 13.945200 -7.125000 0.000000 0.000000 10.677700 52.537800 1.999300 7.379740 12.521708 1.179363 54.597559 17.325602 30.049736 -34.284027 35.135190 -16.171389 1.025532 4.394696 -33.955684 -32.616659 -38.903685 25.296300 7.125000 0.000000 0.000000 0.814500 -76.833500 -0.607600 
-5.577261 17.944372 -28.721836 176.881248 -52.921249 -161.508811 14.800587 -3.936542 -4.486443 -15.511025 -36.530033 -18.778740 -5.590102 13.320413 22.278831 5.975426 -12.550667 9.889153 2.172100 -9.215800 -26.472700 -14.236502 4.123316 -5.181404 3.415827 36.124650 -22.698842 4.333827 -15.415433 24.074110 -6.431830 11.761246 8.012404 -0.725300 5.441700 -15.172700 2.495025 2.464498 -6.828186 0.151316 2.969201 -4.687589 -7.602794 1.174812 1.825382 9.115055 17.069480 -12.655850 -0.578951 21.592222 12.018749 -3.980200 10.294300 14.874000 -0.978724 -12.038658 0.521793 -51.932422 -21.414386 56.566710 32.243436 -33.935487 -15.749508 0.295914 -5.600197 -64.446088 33.499716 16.118253 13.994600 -7.125000 0.000000 0.000000 10.792600 52.558600 2.026800 7.425839 12.518739 1.223707 54.773079 17.204244 29.834584 -34.097106 35.036896 -16.041255 1.040135 4.386133 -33.808891 -32.532987 -38.783018 25.174800 7.125000 0.000000 0.000000 0.823500 -76.682400 -0.611600 
-5.511764 17.952390 -28.831148 176.980921 -54.109057 -161.577446 14.766123 -3.955171 -4.442104 -14.803061 -37.000135 -18.737827 -5.625690 13.198562 21.910164 6.072640 -12.766675 10.069946 2.214600 -9.299600 -26.736900 -14.164353 4.041615 -5.177631 4.456085 35.688971 -22.153605 4.243414 -15.317426 24.278381 -5.994442 10.180548 6.920087 -0.878200 5.974500 -16.710400 2.655408 2.585293 -6.892391 0.131965 3.102201 -4.674898 -7.733180 1.238401 1.772876 9.401997 17.428196 -12.281764 -0.663247 22.077791 11.852382 -3.997900 10.551900 14.779200 -0.962847 -12.020602 0.583152 -51.768035 -21.446346 56.724710 32.325276 -34.006320 -15.820881 0.302923 -5.607906 -64.529062 33.622957 16.152540 14.081700 -7.125000 0.000000 0.000000 10.937000 52.627300 2.072900 7.468219 12.515536 1.267373 54.906320 17.123247 29.597787 -33.911368 34.931306 -15.909727 1.053114 4.377502 -33.666940 -32.401792 -38.652404 25.010900 7.125000 0.000000 0.000000 0.921300 -76.506400 -0.680900 
-5.444009 17.963118 -28.940685 177.115808 -55.284489 -161.647447 14.737364 -3.987501 -4.420601 -14.064729 -37.442831 -18.711027 -5.665922 13.060927 21.506191 6.160285 -12.920653 10.302545 2.278700 -9.424000 -27.130800 -14.132747 4.000747 -5.148591 5.366590 35.620512 -21.715256 4.169327 -15.304130 24.506977 -5.460981 8.437844 6.021381 -0.973200 6.280500 -17.600400 2.804874 2.702694 -6.966341 0.116256 3.229358 -4.661369 -7.824508 1.298742 1.740920 9.612724 17.782619 -11.977251 -0.714665 22.574191 11.711252 -3.969700 10.803900 14.706100 -0.949036 -12.008932 0.637566 -51.646251 -21.512917 56.819490 32.373689 -34.047950 -15.864253 0.305369 -5.618991 -64.575236 33.761781 16.203826 14.189500 -7.125000 0.000000 0.000000 11.102800 52.719200 2.130100 7.504493 12.516137 1.307998 55.050724 17.074977 29.336897 -33.731827 34.820419 -15.775552 1.069024 4.361727 -33.476548 -32.215410 -38.469991 24.777000 7.125000 0.000000 0.000000 1.068200 -76.257600 -0.783900 
-5.373656 17.975765 -29.050335 177.305958 -56.452415 -161.724872 14.717614 -4.037209 -4.422007 -13.271915 -37.853986 -18.736465 -5.705632 12.927813 21.094810 6.239049 -13.010249 10.562733 2.367100 -9.592200 -27.665900 -14.146067 4.000908 -5.095922 6.160940 35.896965 -21.400413 4.107574 -15.378333 24.770955 -4.867332 6.651754 5.309529 -0.964400 6.252800 -17.519700 2.957935 2.819215 -7.051460 0.102819 3.351835 -4.649683 -7.893624 1.354947 1.711298 9.783958 18.128156 -11.709233 -0.757937 23.065466 11.576038 -3.924100 11.047400 14.640700 -0.935977 -12.002125 0.687948 -51.543792 -21.578349 56.859355 32.417513 -34.085831 -15.905238 0.303454 -5.634306 -64.604000 33.959951 16.268636 14.337200 -7.125000 0.000000 0.000000 11.340500 52.838500 2.210000 7.535710 12.516252 1.344236 55.236905 17.042266 29.040683 -33.576525 34.719911 -15.654495 1.084377 4.340377 -33.243788 -31.977487 -38.275548 24.493800 7.125000 0.000000 0.000000 1.311100 -75.978300 -0.954400 
-5.301497 17.988413 -29.159082 177.539785 -57.598575 -161.800456 14.709492 -4.102141 -4.437595 -12.432918 -38.243437 -18.838704 -5.741369 12.818364 20.704532 6.305972 -13.027695 10.830883 2.483100 -9.807000 -28.354100 -14.197986 4.029165 -5.033756 6.891669 36.368289 -21.220969 4.046856 -15.527511 25.078838 -4.205261 4.772604 4.633107 -0.935400 6.160500 -17.250800 3.126152 2.951031 -7.143011 0.085191 3.493359 -4.641142 -7.969964 1.417236 1.689017 9.897369 18.439278 -11.508672 -0.774210 23.512210 11.456235 -3.850700 11.264000 14.578000 -0.929347 -12.002821 0.730114 -51.477565 -21.665880 56.878891 32.442391 -34.102594 -15.927517 0.295089 -5.649257 -64.575947 34.169141 16.331548 14.489100 -7.125000 0.000000 0.000000 11.591200 52.957100 2.293800 7.554375 12.516351 1.371376 55.473627 17.008895 28.676073 -33.445535 34.632184 -15.548392 1.099855 4.312540 -32.977374 -31.701635 -38.052998 24.165400 7.125000 0.000000 0.000000 1.595400 -75.655700 -1.150500 
